<svg xmlns="http://www.w3.org/2000/svg" xmlns:xlink="http://www.w3.org/1999/xlink" width="512" height="512" viewBox="0 0 512 512">
  <defs>
    <clipPath id="clip-xd_appicon_512">
      <rect width="512" height="512"/>
    </clipPath>
  </defs>
  <g id="xd_appicon_512" clip-path="url(#clip-xd_appicon_512)">
    <g id="Layer_2" data-name="Layer 2" transform="translate(-0.036)">
      <g id="Surfaces" transform="translate(0 0)">
        <g id="UI_UX_Surface" data-name="UI UX Surface">
          <g id="Outline_no_shadow" data-name="Outline no shadow">
            <path id="Path_3" data-name="Path 3" d="M90.667,0H421.333A90.667,90.667,0,0,1,512,90.667V408.533A90.667,90.667,0,0,1,421.333,499.2H90.667A90.667,90.667,0,0,1,0,408.533V90.667A90.667,90.667,0,0,1,90.667,0Z" fill="#470137"/>
          </g>
        </g>
      </g>
      <g id="Outlined_Mnemonics_Logos" data-name="Outlined Mnemonics Logos" transform="translate(74.542 109.281)">
        <g id="Xd">
          <path id="Path_1" data-name="Path 1" d="M229.556,63.393,165.671,168.838l68.35,111.97a3.534,3.534,0,0,1,.344,2.577c-.23.8-1.03.3-2.4.523H183.188c-3.435,0-5.839-.122-7.213-2.413q-6.877-13.4-13.739-26.618-6.877-13.219-14.6-26.963t-15.285-27.821h-.344q-6.877,13.741-14.255,27.477t-14.6,27.307q-7.213,13.571-14.769,26.961c-.917,2.061-2.524,2.274-4.809,2.274H36.528c-.913,0-1.427.36-1.547-.557a3.46,3.46,0,0,1,.516-2.4l66.289-108.879L37.215,63.05q-1.03-1.366-.343-2.231a2.5,2.5,0,0,1,2.061-.86H87.361a7.159,7.159,0,0,1,3.091.516,6.24,6.24,0,0,1,2.061,1.888Q98.7,76.1,106.252,89.84t15.283,27.134q7.728,13.4,14.255,27.134h.344q6.867-14.08,13.911-27.477T164.468,89.67q7.382-13.565,14.255-26.963a5.28,5.28,0,0,1,1.374-2.231,4.977,4.977,0,0,1,2.748-.516h44.994a1.968,1.968,0,0,1,1.717,3.435Z" transform="translate(-34.941 -41.393)" fill="#ff61f6"/>
          <path id="Path_2" data-name="Path 2" d="M220,298.2a106.406,106.406,0,0,1-45.854-9.617,72.9,72.9,0,0,1-32.113-29.022q-11.681-19.4-11.678-48.6a89.687,89.687,0,0,1,11.678-44.994,85.735,85.735,0,0,1,34-32.973q22.323-12.365,53.924-12.365,1.715,0,4.465.173t6.526.514V53.648c0-1.6.687-2.4,2.061-2.4h43.277a1.823,1.823,0,0,1,2.061,1.547,1.712,1.712,0,0,1,0,.514V256.293q0,5.846.514,12.708t.86,12.365a3.547,3.547,0,0,1-2.061,3.435,170.285,170.285,0,0,1-34.69,10.3A186.235,186.235,0,0,1,220,298.2Zm20.951-42.59V161.84a34.269,34.269,0,0,0-5.666-1.031,68.711,68.711,0,0,0-7.042-.343,53.067,53.067,0,0,0-24.043,5.5,46.964,46.964,0,0,0-18.031,15.8q-7.044,10.3-7.042,27.134a60.626,60.626,0,0,0,3.605,21.982,41.746,41.746,0,0,0,9.62,15.113,36.6,36.6,0,0,0,14.423,8.587,56.456,56.456,0,0,0,17.689,2.748q4.806,0,8.93-.343A36.664,36.664,0,0,0,240.949,255.606Z" transform="translate(73.188 -51.225)" fill="#ff61f6"/>
        </g>
      </g>
    </g>
  </g>
</svg>
