<svg xmlns="http://www.w3.org/2000/svg" xmlns:xlink="http://www.w3.org/1999/xlink" width="128" height="128" viewBox="0 0 128 128">
  <defs>
    <clipPath id="clip-path">
      <rect id="Rectangle_1" data-name="Rectangle 1" width="128" height="128"/>
    </clipPath>
  </defs>
  <g id="xd_appicon_512" clip-path="url(#clip-path)">
    <g id="Layer_2" data-name="Layer 2" transform="translate(-0.009)">
      <g id="Surfaces">
        <g id="UI_UX_Surface" data-name="UI UX Surface">
          <g id="Outline_no_shadow" data-name="Outline no shadow">
            <path id="Path_3" data-name="Path 3" d="M22.667,0h82.667A22.667,22.667,0,0,1,128,22.667v79.466A22.667,22.667,0,0,1,105.333,124.8H22.667A22.667,22.667,0,0,1,0,102.133V22.667A22.667,22.667,0,0,1,22.667,0Z" fill="#470137"/>
          </g>
        </g>
      </g>
      <g id="Outlined_Mnemonics_Logos" data-name="Outlined Mnemonics Logos" transform="translate(18.636 27.321)">
        <g id="Xd">
          <path id="Path_1" data-name="Path 1" d="M83.6,60.775,67.624,87.136l17.087,27.992a.883.883,0,0,1,.086.644c-.057.2-.257.075-.6.131H72c-.859,0-1.46-.031-1.8-.6q-1.719-3.35-3.435-6.654t-3.65-6.741q-1.931-3.436-3.821-6.955h-.086q-1.719,3.435-3.564,6.869t-3.65,6.827q-1.8,3.393-3.692,6.74c-.229.515-.631.568-1.2.568H35.338c-.228,0-.357.09-.387-.139a.865.865,0,0,1,.129-.6L51.653,88,35.51,60.689q-.257-.342-.086-.558a.625.625,0,0,1,.515-.215H48.047a1.79,1.79,0,0,1,.773.129,1.56,1.56,0,0,1,.515.472q1.547,3.434,3.435,6.869T56.59,74.17q1.932,3.35,3.564,6.784h.086q1.717-3.52,3.478-6.869t3.606-6.74q1.845-3.391,3.564-6.741a1.32,1.32,0,0,1,.343-.558,1.244,1.244,0,0,1,.687-.129H83.166a.492.492,0,0,1,.429.859Z" transform="translate(-34.942 -55.276)" fill="#ff61f6"/>
          <path id="Path_2" data-name="Path 2" d="M152.764,112.972a26.6,26.6,0,0,1-11.464-2.4,18.225,18.225,0,0,1-8.028-7.256,23.2,23.2,0,0,1-2.919-12.15,22.422,22.422,0,0,1,2.919-11.248,21.434,21.434,0,0,1,8.5-8.243,27.441,27.441,0,0,1,13.481-3.091q.429,0,1.116.043t1.632.128V51.834q0-.6.515-.6h10.819a.456.456,0,0,1,.515.387.427.427,0,0,1,0,.129V102.5q0,1.462.128,3.177t.215,3.091a.887.887,0,0,1-.515.859,42.571,42.571,0,0,1-8.673,2.575A46.559,46.559,0,0,1,152.764,112.972ZM158,102.325V78.882a8.567,8.567,0,0,0-1.416-.258,17.179,17.179,0,0,0-1.76-.086,13.267,13.267,0,0,0-6.011,1.375,11.05,11.05,0,0,0-6.268,10.734,15.156,15.156,0,0,0,.9,5.5,10.437,10.437,0,0,0,2.4,3.778,9.15,9.15,0,0,0,3.606,2.147,14.114,14.114,0,0,0,4.422.687q1.2,0,2.233-.086a9.166,9.166,0,0,0,1.889-.345Z" transform="translate(-79.467 -51.23)" fill="#ff61f6"/>
        </g>
      </g>
    </g>
  </g>
</svg>
