<svg xmlns="http://www.w3.org/2000/svg" width="24" height="29" viewBox="0 0 24 29.476">
  <g id="xd_DSP_32" transform="translate(-4 -1)">
    <g id="Surface">
      <g id="Document">
        <g id="Document_Fill" data-name="Document Fill">
          <path id="_128" data-name=" 128" d="M7,30.3a2.481,2.481,0,0,1-2.5-2.45V4.25A2.481,2.481,0,0,1,7,1.8H20.75a2.517,2.517,0,0,1,1.775.725L26.775,6.7A2.361,2.361,0,0,1,27.5,8.425V27.85A2.481,2.481,0,0,1,25,30.3Z" fill="#470137"/>
        </g>
        <g id="Document_Outline" data-name="Document Outline">
          <path id="_128-2" data-name=" 128-2" d="M20.75,2a2.164,2.164,0,0,1,1.425.6l4.25,4.175A1.813,1.813,0,0,1,27,8.125V27.55a1.963,1.963,0,0,1-2,1.95H7a1.943,1.943,0,0,1-2-1.925V3.975A1.985,1.985,0,0,1,7,2H20.75m.025-1H7.025A3,3,0,0,0,4,3.95v23.6a2.945,2.945,0,0,0,3,2.925H25a2.946,2.946,0,0,0,3-2.85V8.15a2.97,2.97,0,0,0-.875-2.1l-4.25-4.175A2.97,2.97,0,0,0,20.775,1Z" fill="#ff61f6"/>
        </g>
      </g>
    </g>
    <g id="Mime">
      <g id="_128-3" data-name=" 128-3">
        <g id="Group_1" data-name="Group 1" style="isolation: isolate">
          <path id="Path_1" data-name="Path 1" d="M11.425,22.05c0-.025,0-.05.05-.05.15,0,.575-.025,1.025-.025a1.862,1.862,0,0,1,1.975,2.1,2,2,0,0,1-2.025,2.25c-.325,0-.8,0-1-.025a.054.054,0,0,1-.05-.05v-4.2Zm.7,3.675c.1,0,.2.025.325.025.725,0,1.275-.525,1.275-1.625,0-1.075-.55-1.5-1.25-1.5a1.537,1.537,0,0,0-.35.025Z" fill="#fff"/>
        </g>
        <g id="Group_2" data-name="Group 2" style="isolation: isolate">
          <path id="Path_2" data-name="Path 2" d="M15.125,26.2c-.025-.025-.05-.05-.05-.075V25.5c0-.025.025-.05.05-.025a1.7,1.7,0,0,0,.95.3c.475,0,.675-.25.675-.525,0-.25-.125-.45-.575-.725L15.95,24.4c-.675-.375-.875-.75-.875-1.25a1.179,1.179,0,0,1,1.325-1.2,1.662,1.662,0,0,1,.825.15c.025.025.05.025.05.075v.575c0,.025-.025.05-.05.025a1.579,1.579,0,0,0-.8-.2c-.5,0-.675.275-.675.525s.125.425.575.675l.2.1c.75.4.925.8.925,1.3A1.226,1.226,0,0,1,16.075,26.4a2.218,2.218,0,0,1-.95-.2Z" fill="#fff"/>
        </g>
        <g id="Group_3" data-name="Group 3" style="isolation: isolate">
          <path id="Path_3" data-name="Path 3" d="M18.225,22.05c0-.025,0-.05.05-.05.25-.025.625-.025,1.025-.025,1.1,0,1.575.6,1.575,1.375,0,1-.725,1.425-1.6,1.425h-.3V26.3a.054.054,0,0,1-.05.05h-.6a.054.054,0,0,1-.05-.05V22.05Zm.7,2.1h.325c.45,0,.9-.175.9-.775,0-.5-.3-.75-.825-.75a1.545,1.545,0,0,0-.375.025v1.5Z" fill="#fff"/>
        </g>
      </g>
    </g>
    <g id="Modifier">
      <g id="Xd">
        <g id="_128-4" data-name=" 128-4">
          <path id="Path_4" data-name="Path 4" d="M16.225,7.45,13.55,11.925l2.975,4.9a.15.15,0,0,1,.025.1c0,.025-.05.05-.1.075H14.325A.343.343,0,0,1,14,16.85c-.2-.4-.4-.775-.6-1.15s-.425-.775-.625-1.175c-.225-.4-.45-.8-.675-1.225h-.025c-.2.4-.4.8-.625,1.2s-.425.8-.625,1.2-.425.8-.65,1.175a.187.187,0,0,1-.2.125H7.925c-.025,0-.075-.025-.075-.05h0a.15.15,0,0,1,.025-.1l2.9-4.75L7.825,7.425a.189.189,0,0,1-.025-.1.13.13,0,0,1,.1-.05h2.125a.187.187,0,0,1,.125.025c.025.025.075.05.1.075.175.4.5.675.725,1.075s.45.8.675,1.175c.225.4.425.775.625,1.175H12.3l.6-1.2c.2-.4.425-.775.625-1.175.225-.4.3-.675.5-1.05a.19.19,0,0,1,.05-.1A.187.187,0,0,1,14.2,7.25h1.975c.05,0,.1.025.1.075a.147.147,0,0,1-.05.125Z" fill="#ff61f6"/>
          <path id="Path_5" data-name="Path 5" d="M20.35,17.225a4.567,4.567,0,0,1-2-.425,3.259,3.259,0,0,1-1.4-1.325,4.168,4.168,0,0,1-.5-2.125,3.807,3.807,0,0,1,1.975-3.425,4.887,4.887,0,0,1,2.35-.425h.2c.075,0,.175.025.275.025V6.375c0-.075.025-.1.1-.1h1.775c.05,0,.075.025.1.075v9a4.238,4.238,0,0,0,.025.55c.025.2.025.375.05.55a.137.137,0,0,1-.1.15,5.864,5.864,0,0,1-1.4.5,9.739,9.739,0,0,1-1.45.125Zm.9-1.925V11.225H21c-.1,0-.2-.025-.3-.025a2.19,2.19,0,0,0-1.05.2,2.107,2.107,0,0,0-.85.7,1.973,1.973,0,0,0-.3,1.175,3.022,3.022,0,0,0,.15.95,1.635,1.635,0,0,0,.425.65,1.9,1.9,0,0,0,.7.375,2.647,2.647,0,0,0,.775.125,2.021,2.021,0,0,0,.4-.025A.686.686,0,0,0,21.25,15.3Z" fill="#ff61f6"/>
        </g>
      </g>
    </g>
  </g>
</svg>
